<svg xmlns="http://www.w3.org/2000/svg" viewBox="0 0 32 32" fill="none">
  <defs>
    <linearGradient id="g" x1="0" y1="0" x2="32" y2="32">
      <stop offset="0%" stop-color="#f59e0b"/>
      <stop offset="100%" stop-color="#ef4444"/>
    </linearGradient>
  </defs>
  <circle cx="16" cy="16" r="15" stroke="url(#g)" stroke-width="2"/>
  <path d="M16 7a5 5 0 0 1 5 5v4a6 6 0 0 0 1.5 4l.5.5a.75.75 0 0 1-.53 1.28H9.53a.75.75 0 0 1-.53-1.28l.5-.5A6 6 0 0 0 11 16v-4a5 5 0 0 1 5-5z" stroke="url(#g)" stroke-width="2" stroke-linecap="round" stroke-linejoin="round"/>
  <path d="M13.5 22a2.5 2.5 0 0 0 5 0" stroke="url(#g)" stroke-width="2" stroke-linecap="round"/>
  <line x1="16" y1="4" x2="16" y2="7" stroke="url(#g)" stroke-width="1.5" stroke-linecap="round" opacity="0.7"/>
</svg>